<?xml version="1.0" encoding="UTF-8" standalone="no"?>
<!-- Created with Inkscape (http://www.inkscape.org/) -->

<svg
   xmlns:dc="http://purl.org/dc/elements/1.1/"
   xmlns:cc="http://creativecommons.org/ns#"
   xmlns:rdf="http://www.w3.org/1999/02/22-rdf-syntax-ns#"
   xmlns:svg="http://www.w3.org/2000/svg"
   xmlns="http://www.w3.org/2000/svg"
   xmlns:xlink="http://www.w3.org/1999/xlink"
   xmlns:sodipodi="http://sodipodi.sourceforge.net/DTD/sodipodi-0.dtd"
   xmlns:inkscape="http://www.inkscape.org/namespaces/inkscape"
   width="151.01338mm"
   height="179.33333mm"
   viewBox="0 0 535.08679 635.43305"
   id="svg10472"
   version="1.1"
   inkscape:version="0.91 r13725"
   sodipodi:docname="first_responder_06_doctor.svg">
  <title
     id="title7536">First responder - doctor</title>
  <defs
     id="defs10474">
    <linearGradient
       x1="654.28998"
       y1="-254.53"
       gradientTransform="matrix(1.1013,-0.15809,0.69098,0.32964,-40.16,-222.83)"
       x2="653.26001"
       gradientUnits="userSpaceOnUse"
       y2="-204.24001"
       id="linearGradient7500">
      <stop
         offset="0"
         style="stop-color:white"
         id="stop14612" />
      <stop
         offset="1"
         style="stop-color:white;stop-opacity:0"
         id="stop14614" />
    </linearGradient>
    <linearGradient
       x1="379.73999"
       y1="-452.60999"
       gradientTransform="matrix(0.50432,0,0,0.50432,34.099,911.79)"
       x2="411.78"
       gradientUnits="userSpaceOnUse"
       y2="-436.19"
       id="linearGradient7502">
      <stop
         offset="0"
         style="stop-color:#f8f8f8"
         id="stop10162" />
      <stop
         offset="1"
         style="stop-color:#6b6b6b"
         id="stop10164" />
    </linearGradient>
    <linearGradient
       x1="310.45999"
       y1="-332.04999"
       gradientTransform="matrix(0.50432,0,0,0.50432,6.0662,842.39)"
       x2="377.42999"
       gradientUnits="userSpaceOnUse"
       y2="-264.31"
       id="linearGradient7504">
      <stop
         offset="0"
         style="stop-color:#e2e2e2;stop-opacity:.85795"
         id="stop8366" />
      <stop
         offset=".49123"
         style="stop-color:white;stop-opacity:.84659"
         id="stop9255" />
      <stop
         offset="1"
         style="stop-color:white;stop-opacity:.40341"
         id="stop8368" />
    </linearGradient>
    <linearGradient
       x1="310.45999"
       y1="-332.04999"
       gradientTransform="matrix(-0.50432,0,0,-0.50432,414.84,672.86)"
       x2="377.42999"
       gradientUnits="userSpaceOnUse"
       y2="-264.31"
       id="linearGradient7506">
      <stop
         offset="0"
         style="stop-color:black;stop-opacity:.57386"
         id="stop9267" />
      <stop
         offset=".49123"
         style="stop-color:#dfdfdf;stop-opacity:.45455"
         id="stop9269" />
      <stop
         offset="1"
         style="stop-color:white;stop-opacity:.40341"
         id="stop9271" />
    </linearGradient>
    <linearGradient
       x1="106.8"
       y1="732.45001"
       gradientTransform="matrix(1.0022,0,0,0.92383,139.49,18.687)"
       x2="106.65"
       gradientUnits="userSpaceOnUse"
       y2="714.22998"
       id="linearGradient7508">
      <stop
         offset="0"
         style="stop-color:black"
         id="stop7474" />
      <stop
         offset=".65919"
         style="stop-color:white"
         id="stop7480" />
      <stop
         offset=".84436"
         style="stop-color:white"
         id="stop7482" />
      <stop
         offset="1"
         style="stop-color:#c1c1c1"
         id="stop7476" />
    </linearGradient>
    <linearGradient
       x1="160.37"
       y1="640.96002"
       gradientTransform="matrix(0.75903,0,0,0.86443,192.34,124.69)"
       x2="127.79"
       gradientUnits="userSpaceOnUse"
       y2="633.84998"
       id="linearGradient7510">
      <stop
         offset="0"
         style="stop-color:black"
         id="stop2841" />
      <stop
         offset="1"
         style="stop-color:white"
         id="stop2843" />
    </linearGradient>
    <linearGradient
       x1="-270.07999"
       x2="-268.41"
       gradientTransform="matrix(100.55,113.72,113.72,-100.55,-25192,76932)"
       y1="460.09"
       gradientUnits="userSpaceOnUse"
       y2="460.09"
       id="XMLID_31_-0">
      <stop
         offset="0"
         style="stop-color:#FFD8BF"
         id="stop142-9" />
      <stop
         offset=".5393"
         style="stop-color:#BF7400"
         id="stop144-1" />
      <stop
         offset="1"
         style="stop-color:#000000"
         id="stop146-2" />
    </linearGradient>
    <linearGradient
       x1="-268.26999"
       x2="-266.57001"
       gradientTransform="matrix(25.13,103.51,103.51,-25.13,-40422,39142)"
       y1="455.76999"
       gradientUnits="userSpaceOnUse"
       y2="455.76999"
       id="XMLID_32_-6">
      <stop
         offset="0"
         style="stop-color:#FFD8BF"
         id="stop153-68" />
      <stop
         offset=".5393"
         style="stop-color:#BF7400"
         id="stop155-3" />
      <stop
         offset="1"
         style="stop-color:#000000"
         id="stop157-3" />
    </linearGradient>
    <linearGradient
       x1="-270.09"
       x2="-268.39999"
       gradientTransform="matrix(100.55,113.72,113.72,-100.55,-25192,76932)"
       y1="460.10001"
       gradientUnits="userSpaceOnUse"
       y2="460.10001"
       id="XMLID_33_-2">
      <stop
         offset="0"
         style="stop-color:#F3C192"
         id="stop172-3" />
      <stop
         offset=".5393"
         style="stop-color:#D49035"
         id="stop174-0" />
      <stop
         offset="1"
         style="stop-color:#765735"
         id="stop176-2" />
    </linearGradient>
    <linearGradient
       x1="-268.26001"
       x2="-266.57999"
       gradientTransform="matrix(25.13,103.51,103.51,-25.13,-40422,39142)"
       y1="455.76999"
       gradientUnits="userSpaceOnUse"
       y2="455.76999"
       id="XMLID_34_-8">
      <stop
         offset="0"
         style="stop-color:#F3C192"
         id="stop183-2" />
      <stop
         offset=".5393"
         style="stop-color:#D49035"
         id="stop185-6" />
      <stop
         offset="1"
         style="stop-color:#765735"
         id="stop187-1" />
    </linearGradient>
    <radialGradient
       r="1.6849999"
       gradientTransform="matrix(32.319,0,0,-32.319,9620.6,15112)"
       cx="-296.48999"
       cy="466.06"
       gradientUnits="userSpaceOnUse"
       id="XMLID_35_-7">
      <stop
         offset="0"
         style="stop-color:#FFFA5F"
         id="stop192-1" />
      <stop
         offset="1"
         style="stop-color:#9F3300"
         id="stop194-8" />
    </radialGradient>
    <linearGradient
       x1="-265.14999"
       x2="-263.48001"
       gradientTransform="matrix(0,-132.47,-132.47,0,62635,-34991)"
       y1="472.53"
       gradientUnits="userSpaceOnUse"
       y2="472.53"
       id="XMLID_21_-9">
      <stop
         offset="0"
         style="stop-color:#7FB5F7"
         id="stop16-9" />
      <stop
         offset="1"
         style="stop-color:#063DA7"
         id="stop18-4" />
    </linearGradient>
    <linearGradient
       x1="-265.16"
       x2="-263.47"
       gradientTransform="matrix(0,-132.47,-132.47,0,62635,-34991)"
       y1="472.54999"
       gradientUnits="userSpaceOnUse"
       y2="472.54999"
       id="XMLID_22_-9">
      <stop
         offset="0"
         style="stop-color:#7ED8FC"
         id="stop23-3" />
      <stop
         offset="1"
         style="stop-color:#0649AA"
         id="stop25-9" />
    </linearGradient>
    <linearGradient
       x1="-265.16"
       x2="-263.47"
       gradientTransform="matrix(0,-132.47,-132.47,0,62635,-34991)"
       y1="472.53"
       gradientUnits="userSpaceOnUse"
       y2="472.53"
       id="XMLID_23_-18">
      <stop
         offset="0"
         style="stop-color:#5471AF"
         id="stop30-2" />
      <stop
         offset="1"
         style="stop-color:#042676"
         id="stop32-7" />
    </linearGradient>
    <linearGradient
       x1="-265.14999"
       x2="-263.47"
       gradientTransform="matrix(0,-132.47,-132.47,0,62635,-34991)"
       y1="472.53"
       gradientUnits="userSpaceOnUse"
       y2="472.53"
       id="XMLID_24_-9">
      <stop
         offset="0"
         style="stop-color:#68A0F2"
         id="stop37-1" />
      <stop
         offset="1"
         style="stop-color:#0536A3"
         id="stop39-9" />
    </linearGradient>
    <radialGradient
       r="1.6703"
       gradientTransform="matrix(16.729,-0.005,-0.005,-16.729,5488.5,7876.9)"
       cx="-325.75"
       cy="466.57001"
       gradientUnits="userSpaceOnUse"
       id="XMLID_29_-4">
      <stop
         offset="0"
         style="stop-color:#B9DAF4"
         id="stop94-7" />
      <stop
         offset="1"
         style="stop-color:#7A97CB"
         id="stop96-0" />
    </radialGradient>
    <linearGradient
       x1="-257.44"
       x2="-255.81"
       gradientTransform="matrix(-0.9918,-12.804,-12.804,0.9918,6744.6,-3744.8)"
       y1="543.15002"
       gradientUnits="userSpaceOnUse"
       y2="543.15002"
       id="XMLID_30_-5">
      <stop
         offset="0"
         style="stop-color:#FFFFFF"
         id="stop111-9" />
      <stop
         offset=".4625"
         style="stop-color:#FDFEFF"
         id="stop113-8" />
      <stop
         offset=".6291"
         style="stop-color:#F6FAFF"
         id="stop115-8" />
      <stop
         offset=".7478"
         style="stop-color:#EBF4FF"
         id="stop117-19" />
      <stop
         offset=".8438"
         style="stop-color:#DAEAFF"
         id="stop119-64" />
      <stop
         offset=".9251"
         style="stop-color:#C4DEFF"
         id="stop121-2" />
      <stop
         offset=".9967"
         style="stop-color:#A9D0FF"
         id="stop123-0" />
      <stop
         offset="1"
         style="stop-color:#A8CFFF"
         id="stop125-2" />
    </linearGradient>
    <radialGradient
       r="1.6849999"
       gradientTransform="matrix(32.319,0,0,-32.319,9620.6,15112)"
       cx="-296.48999"
       cy="466.06"
       gradientUnits="userSpaceOnUse"
       id="XMLID_35_-7-3">
      <stop
         offset="0"
         style="stop-color:#FFFA5F"
         id="stop192-1-3" />
      <stop
         offset="1"
         style="stop-color:#9F3300"
         id="stop194-8-7" />
    </radialGradient>
    <linearGradient
       x1="-346.29001"
       x2="-344.60001"
       gradientTransform="matrix(11.5,4.0001,4.0001,-11.5,2213.4,6484.9)"
       y1="440.47"
       gradientUnits="userSpaceOnUse"
       y2="440.47"
       id="XMLID_36_-0">
      <stop
         offset="0"
         style="stop-color:#FFFFFF"
         id="stop201-7" />
      <stop
         offset="1"
         style="stop-color:#818181"
         id="stop203-7" />
    </linearGradient>
    <radialGradient
       r="1.6653"
       gradientTransform="matrix(29.207,0,0,-29.207,9361.9627,13701.141)"
       cx="-293.67999"
       cy="462.75"
       gradientUnits="userSpaceOnUse"
       id="XMLID_15_">
      <stop
         offset="0"
         style="stop-color:#FFFA5F"
         id="stop6" />
      <stop
         offset="1"
         style="stop-color:#9F3300"
         id="stop8" />
    </radialGradient>
    <linearGradient
       x1="23.132999"
       x2="26.216"
       y1="63.771999"
       gradientUnits="userSpaceOnUse"
       y2="63.771999"
       id="XMLID_18_"
       gradientTransform="translate(746.86266,136.14128)">
      <stop
         offset="0"
         style="stop-color:#9CD305"
         id="stop50" />
      <stop
         offset="1"
         style="stop-color:#084703"
         id="stop52" />
    </linearGradient>
    <radialGradient
       r="1.6545"
       gradientTransform="matrix(16.729,-0.005,-0.005,-16.729,6044.2627,7904.1413)"
       cx="-314.28"
       cy="460.07999"
       gradientUnits="userSpaceOnUse"
       id="XMLID_20_">
      <stop
         offset="0"
         style="stop-color:#B9DAF4"
         id="stop69" />
      <stop
         offset="1"
         style="stop-color:#7A97CB"
         id="stop71" />
    </radialGradient>
    <linearGradient
       x1="-269.39001"
       x2="-267.73999"
       gradientTransform="matrix(103.4,116.94,116.94,-103.4,-25383.137,79303.141)"
       y1="461.41"
       gradientUnits="userSpaceOnUse"
       y2="461.41"
       id="XMLID_22_-6">
      <stop
         offset="0"
         style="stop-color:#FFD8BF"
         id="stop117-1" />
      <stop
         offset=".5393"
         style="stop-color:#BF7400"
         id="stop119-6" />
      <stop
         offset="1"
         style="stop-color:#000000"
         id="stop121-3" />
    </linearGradient>
    <linearGradient
       x1="-269.41"
       x2="-267.70999"
       gradientTransform="matrix(103.4,116.94,116.94,-103.4,-25383.137,79303.141)"
       y1="461.29999"
       gradientUnits="userSpaceOnUse"
       y2="461.29999"
       id="XMLID_23_-1">
      <stop
         offset="0"
         style="stop-color:#F3C192"
         id="stop136" />
      <stop
         offset=".5393"
         style="stop-color:#D49035"
         id="stop138" />
      <stop
         offset="1"
         style="stop-color:#765735"
         id="stop140" />
    </linearGradient>
    <linearGradient
       x1="-269.44"
       x2="-267.67999"
       gradientTransform="matrix(103.4,116.94,116.94,-103.4,-25383.137,79303.141)"
       y1="461.60001"
       gradientUnits="userSpaceOnUse"
       y2="461.60001"
       id="XMLID_24_-3">
      <stop
         offset="0"
         style="stop-color:#F3C192"
         id="stop149" />
      <stop
         offset=".5393"
         style="stop-color:#D49035"
         id="stop151" />
      <stop
         offset="1"
         style="stop-color:#765735"
         id="stop153-6" />
    </linearGradient>
    <radialGradient
       r="1.6746"
       gradientTransform="matrix(40.852,0,0,-40.852,12463.863,19124.141)"
       cx="-285.76001"
       cy="463.54001"
       gradientUnits="userSpaceOnUse"
       id="XMLID_25_">
      <stop
         offset="0"
         style="stop-color:#FFFA5F"
         id="stop166" />
      <stop
         offset="1"
         style="stop-color:#9F3300"
         id="stop168" />
    </radialGradient>
    <radialGradient
       gradientTransform="matrix(0.72510568,-0.65633161,0.39456749,0.43591253,-1020.3018,231.1569)"
       gradientUnits="userSpaceOnUse"
       r="14.963702"
       fy="301.93802"
       fx="168.56766"
       cy="301.93802"
       cx="168.56766"
       id="radialGradient4391"
       xlink:href="#linearGradient4383"
       inkscape:collect="always" />
    <linearGradient
       id="linearGradient4383"
       inkscape:collect="always">
      <stop
         id="stop4385"
         offset="0"
         style="stop-color:#bfbfbf;stop-opacity:1;" />
      <stop
         id="stop4387"
         offset="1"
         style="stop-color:#000000;stop-opacity:1" />
    </linearGradient>
    <linearGradient
       gradientTransform="matrix(0.3488789,0,0,0.3488789,-846.83274,140.16357)"
       gradientUnits="userSpaceOnUse"
       y2="319.28513"
       x2="195.76497"
       y1="339.80957"
       x1="211.21996"
       id="linearGradient4369"
       xlink:href="#linearGradient4363"
       inkscape:collect="always" />
    <linearGradient
       id="linearGradient4363"
       inkscape:collect="always">
      <stop
         id="stop4365"
         offset="0"
         style="stop-color:#010101;stop-opacity:1;" />
      <stop
         id="stop4367"
         offset="1"
         style="stop-color:#434343;stop-opacity:1" />
    </linearGradient>
    <linearGradient
       gradientTransform="matrix(0.4778124,0,0,0.4778124,-873.83903,97.516996)"
       gradientUnits="userSpaceOnUse"
       y2="326.30219"
       x2="202.69502"
       y1="334.71594"
       x1="209.70648"
       id="linearGradient4379"
       xlink:href="#linearGradient4373"
       inkscape:collect="always" />
    <linearGradient
       id="linearGradient4373"
       inkscape:collect="always">
      <stop
         id="stop4375"
         offset="0"
         style="stop-color:#909090;stop-opacity:1" />
      <stop
         id="stop4377"
         offset="1"
         style="stop-color:#bababa;stop-opacity:0;" />
    </linearGradient>
    <linearGradient
       gradientTransform="matrix(0.22293974,0,0,0.22293974,-761.85417,368.10557)"
       gradientUnits="userSpaceOnUse"
       y2="308.92142"
       x2="143.79958"
       y1="293.35004"
       x1="132.91774"
       id="linearGradient4421"
       xlink:href="#linearGradient4370"
       inkscape:collect="always" />
    <linearGradient
       inkscape:collect="always"
       id="linearGradient4370">
      <stop
         style="stop-color:#ffffff;stop-opacity:0.8"
         offset="0"
         id="stop4372" />
      <stop
         style="stop-color:#ffffff;stop-opacity:0"
         offset="1"
         id="stop4374" />
    </linearGradient>
    <linearGradient
       y2="308.92142"
       x2="143.79958"
       y1="290.50546"
       x1="140.58649"
       gradientTransform="matrix(0.22293974,0,0,0.22293974,-822.71151,279.54648)"
       gradientUnits="userSpaceOnUse"
       id="linearGradient4425"
       xlink:href="#linearGradient4370"
       inkscape:collect="always" />
    <linearGradient
       gradientUnits="userSpaceOnUse"
       y2="271.36148"
       x2="131.93427"
       y1="202.67267"
       x1="95.0858"
       id="linearGradient4435"
       xlink:href="#linearGradient4370"
       inkscape:collect="always"
       gradientTransform="matrix(-0.3488789,0,0,0.3488789,853.88598,129.4048)" />
  </defs>
  <sodipodi:namedview
     id="base"
     pagecolor="#ffffff"
     bordercolor="#666666"
     borderopacity="1.0"
     inkscape:pageopacity="0.0"
     inkscape:pageshadow="2"
     inkscape:zoom="0.7"
     inkscape:cx="89.51489"
     inkscape:cy="363.72325"
     inkscape:document-units="px"
     inkscape:current-layer="layer1"
     showgrid="false"
     fit-margin-top="5"
     fit-margin-left="5"
     fit-margin-right="5"
     fit-margin-bottom="5"
     inkscape:window-width="1920"
     inkscape:window-height="1125"
     inkscape:window-x="0"
     inkscape:window-y="0"
     inkscape:window-maximized="1" />
  <metadata
     id="metadata10477">
    <rdf:RDF>
      <cc:Work
         rdf:about="">
        <dc:format>image/svg+xml</dc:format>
        <dc:type
           rdf:resource="http://purl.org/dc/dcmitype/StillImage" />
        <dc:title>First responder - doctor</dc:title>
        <dc:creator>
          <cc:Agent>
            <dc:title>Jan Helebrant</dc:title>
          </cc:Agent>
        </dc:creator>
        <dc:rights>
          <cc:Agent>
            <dc:title>Jan Helebrant</dc:title>
          </cc:Agent>
        </dc:rights>
        <dc:publisher>
          <cc:Agent>
            <dc:title>Jan Helebrant</dc:title>
          </cc:Agent>
        </dc:publisher>
        <cc:license
           rdf:resource="http://creativecommons.org/publicdomain/zero/1.0/" />
        <dc:subject>
          <rdf:Bag>
            <rdf:li>emergency</rdf:li>
            <rdf:li>disaster</rdf:li>
            <rdf:li>doctor</rdf:li>
            <rdf:li>medicine</rdf:li>
            <rdf:li>injury</rdf:li>
          </rdf:Bag>
        </dc:subject>
      </cc:Work>
      <cc:License
         rdf:about="http://creativecommons.org/publicdomain/zero/1.0/">
        <cc:permits
           rdf:resource="http://creativecommons.org/ns#Reproduction" />
        <cc:permits
           rdf:resource="http://creativecommons.org/ns#Distribution" />
        <cc:permits
           rdf:resource="http://creativecommons.org/ns#DerivativeWorks" />
      </cc:License>
    </rdf:RDF>
  </metadata>
  <g
     inkscape:label="Vrstva 1"
     inkscape:groupmode="layer"
     id="layer1"
     transform="translate(-36.849978,-49.215499)">
    <g
       id="g9343"
       transform="matrix(4.3259231,0,0,4.3259231,-3106.6211,-522.94779)">
      <path
         d="m 821.32666,180.72428 c -1.213,4.198 0.906,8.655 -0.467,12.975 -1.108,3.496 -3.972,6.009 -7.107,7.707 3.315,2.953 7.283,-2.632 8.343,-6.176 1.342,-4.481 0.173,-10.054 -0.769,-14.506 m -63.283,-14.953 c -1.188,0.981 -1.53,2.722 -1.534,4.171 0.623,-1.439 1.191,-2.64 1.534,-4.171 m -1.711,-1.191 c -4.294,8.188 -7.901,17.803 -8.45,27.127 -0.389,6.629 10.015,17.901 15.65,12.134 -7.682,-2.251 -13.92,-6.871 -12.715,-15.556 0.586,-4.213 1.851,-8.35 3.321,-12.329 1.512,-4.096 1.678,-7.059 2.194,-11.376"
         style="fill:url(#XMLID_15_)"
         id="path10"
         inkscape:connector-curvature="0" />
      <path
         d="m 819.99266,187.56928 c 0,21.853 -37.837,19.946 -51.332,17.47 -7.375,-1.351 -18.069,-4.67 -18.069,-13.885 0,-6.29 2.491,-12.87 4.877,-18.581 5.942,-14.211 18.146,-33.056 36.092,-30.386 19.469,2.898 28.432,28.329 28.432,45.382"
         style="fill:#ffce00"
         id="path12"
         inkscape:connector-curvature="0" />
      <path
         d="m 788.26366,141.94628 c -16.997,0 -34.009,21.239 -32.978,37.428 0.526,8.267 2.235,18.179 10.188,22.583 10.464,4.301 21.039,5.14 32.241,3.845 7.212,-0.833 16.399,-2.498 21.227,-8.546 4.508,-5.649 2.093,-14.896 0.447,-21.211 -3.744,-14.356 -13.85,-34.099 -31.125,-34.099"
         style="fill:#ffb600"
         id="path14"
         inkscape:connector-curvature="0" />
      <path
         d="m 830.28466,242.36128 c 0,23.36 -22.377,31.62 -42.459,31.12 -22.232,-0.56 -41.832,-12.06 -38.97,-36.63 2.474,-21.239 19.162,-45.651 42.922,-44.281 24.206,1.397 38.507,27.928 38.507,49.791"
         style="fill:#ffffff"
         id="path16"
         inkscape:connector-curvature="0" />
      <path
         d="m 789.94366,193.43428 c -23.119,0 -38.683,24.397 -40.354,45.237 -1.924,24.01 19.07,33.91 40.188,33.91 -19.184,0 -39.871,-8.58 -38.932,-30.75 0.9,-21.288 17.556,-38.106 39.067,-38.106 20.522,0 36.259,15.094 37.899,35.416 1.876,23.24 -17.169,33.44 -38.019,33.44 20.421,0 40.414,-9.47 39.535,-32.53 -0.81,-21.276 -15.617,-46.617 -39.384,-46.617"
         style="fill:#cccccc"
         id="path18"
         inkscape:connector-curvature="0" />
      <path
         d="m 760.14866,207.67228 c -12.694,15.877 -19.933,44.969 -0.483,58.669 16.36,11.52 46.984,11.78 62.201,-2 16.155,-14.62 9.074,-42.69 -3.006,-57.569 -16.163,-19.906 -42.85,-18.901 -58.712,0.9 m -10.877,35.409 c 0,-23.215 17.75,-52.585 44.132,-49.603 23.056,2.604 36.117,27.785 36.117,48.883 0,21.13 -18.863,29.85 -37.576,30.33 -19.162,0.49 -42.673,-6.71 -42.673,-29.61"
         style="fill:#808080"
         id="path20-1"
         inkscape:connector-curvature="0" />
      <path
         d="m 789.87166,261.58128 c -13.625,0 -30.078,-2.04 -40.015,-12.47 3.672,18.27 23.766,23.61 39.953,23.61 16.168,0 35.191,-5.41 39.004,-23.38 -9.647,10.26 -25.631,12.24 -38.942,12.24"
         style="fill:#f2f2f2"
         id="path22"
         inkscape:connector-curvature="0" />
      <path
         d="m 789.94366,192.96928 c 21.729,0.015 36.007,22.021 38.225,41.587 2.554,22.545 -13.305,34.675 -34.498,35.785 -19.047,1 -43.408,-6 -43.408,-28.99 0,-21.096 14.525,-46.716 37.64,-48.308 -23.156,1.558 -38.05,26.64 -38.903,47.818 -0.971,24.09 22.214,32.66 42.766,32.15 21.281,-0.53 39.641,-11.53 37.918,-34.87 -1.546,-20.923 -16.445,-45.172 -39.74,-45.172"
         style="fill:#cccccc"
         id="path24"
         inkscape:connector-curvature="0" />
      <path
         d="m 815.81166,208.89728 c -1.16,2.473 -3.816,1.13 -0.958,3.552 0.451,-1.149 0.77,-2.332 0.958,-3.552 m -0.631,-3.732 c 0.269,0.664 0.536,1.327 0.805,1.99 0.263,-0.866 -0.004,-1.53 -0.805,-1.99 m -45.185,-4.785 c -4.795,3.534 -8.292,5.997 -4.815,11.829 3.544,-2.849 2.999,-7.053 6.11,-10.929 -0.432,-0.299 -0.864,-0.6 -1.295,-0.9 m 36.448,-0.198 c -0.817,0.14 -1.329,0.511 -1.532,1.113 0.47,0.302 0.938,0.603 1.408,0.906 0.042,-0.674 0.084,-1.346 0.124,-2.019"
         style="fill:#cccccc"
         id="path33"
         inkscape:connector-curvature="0" />
      <path
         d="m 772.32066,198.79128 c -0.792,0.501 -1.567,1.032 -2.325,1.589 1.944,1.425 1.713,0.285 3.083,-1.133 -0.252,-0.153 -0.506,-0.304 -0.758,-0.456"
         style="fill:url(#XMLID_18_)"
         id="path54"
         inkscape:connector-curvature="0" />
      <path
         d="m 775.63466,200.58428 c 0.264,0.488 0.306,0.721 0.775,0.35 -0.259,-0.117 -0.516,-0.233 -0.775,-0.35 m 29.656,-0.578 c -0.452,0.221 -0.903,0.443 -1.355,0.663 0.997,1.05 1.02,0.563 1.355,-0.663"
         style="fill:url(#XMLID_20_)"
         id="path73"
         inkscape:connector-curvature="0" />
      <path
         sodipodi:nodetypes="csccccccc"
         d="m 802.60466,201.24628 c -4.023,1.644 -8.36,2.479 -12.706,2.479 -3.845,0 -10.155,-2.92 -13.365,-1.528 2.843,4.998 5.917,9.866 8.994,14.723 l 10.56163,16.30412 4.82015,-7.86087 3.33322,-10.56325 c 0.554,-2.136 1.006,-4.3 1.358,-6.478 0.713,-4.422 0.7,-4.702 -2.996,-7.076"
         style="fill:#d7eef4"
         id="path102-7"
         inkscape:connector-curvature="0" />
      <path
         d="m 774.05566,199.64528 c 6.217,12.368 14.467,23.929 22.084,35.466 5.201,-6.974 8.316,-15.709 9.982,-24.164 0.745,-3.785 1.185,-7.629 1.329,-11.481 0.022,-0.549 3.812,2.503 4.012,2.699 1.362,1.328 3.947,3.757 3.595,5.927 -0.353,2.163 -5.175,2.629 -5.175,4.26 0,1.994 7.377,0.88 5.707,4.446 -1.798,3.833 -4.816,7.303 -7.572,10.461 -3.119,3.572 -9.378,12.042 -14.028,9.332 -5.857,-3.398 -11.63,-7.122 -16.785,-11.535 -0.93,-0.797 -5.15,-3.757 -3.985,-5.378 0.873,-1.214 7.953,-5.548 4.267,-6.408 -2.911,-0.681 -8.984,-0.058 -8.789,-4.46 0.155,-3.479 3.035,-6.795 5.358,-9.165"
         style="fill:#ffffff"
         id="path106-2"
         inkscape:connector-curvature="0" />
      <path
         d="m 773.36466,198.95428 c -2.561,2.559 -5.655,6.231 -5.655,10.051 0,5.215 6.48,4.248 9.915,5.313 -4.251,5.538 -7.83,5.53 -1.53,11.069 2.863,2.519 5.974,4.761 9.137,6.883 2.108,1.416 8.691,7.081 11.146,6.781 2.002,-0.24 5.227,-3.932 6.65,-5.25 3.357,-3.105 6.438,-6.532 9.218,-10.162 4.051,-5.291 6.932,-8.711 -0.76,-11.408 4.823,-3.103 5.799,-5.302 1.553,-9.845 -1.198,-1.283 -3.438,-3.866 -5.339,-4.031 -2.054,-0.179 -1.651,6.82 -1.837,8.192 -1.273,9.377 -4.34,18.969 -9.695,26.853 -7.552,-11.51 -15.742,-23.017 -21.858,-35.375 -0.314,0.311 -0.628,0.62 -0.945,0.929 m 3.061,19.069 c 5.243,-4.3 2.782,-5.462 -2.738,-6.324 -6.806,-1.063 -3.026,-6.877 0.143,-10.404 6.546,12.193 14.433,23.833 22.144,35.316 -5.969,-3.391 -11.819,-7.111 -17.143,-11.461 -3.247,-2.657 -6.308,-3.975 -2.406,-7.127 m 20.479,17.689 c 7.484,-9.618 10.789,-23.037 11.433,-34.941 2.42,1.735 8.219,6.225 4.06,8.729 -8.043,4.841 1.131,2.805 2.541,6.378 -0.479,3.197 -4.568,7.091 -6.523,9.412 -3.42,4.065 -7.62,9.01 -12.29,11.411 0.259,-0.33 0.519,-0.66 0.779,-0.989"
         style="fill:#cccccc"
         id="path108-0"
         inkscape:connector-curvature="0" />
      <path
         d="m 821.62866,172.38628 c 0,17.134 -14.967,30.5 -31.73,30.5 -16.761,0 -31.714,-13.376 -31.714,-30.5 0,-17.119 14.958,-30.501 31.714,-30.501 16.758,-0.001 31.73,13.374 31.73,30.501"
         style="fill:#fcd095"
         id="path110"
         inkscape:connector-curvature="0" />
      <path
         d="m 768.63966,160.95428 c 7.063,-8.299 19.275,-10.453 29.489,-7.896 11.724,2.937 17.8,12.202 19.585,23.692 2.497,-16.63 -11.371,-31.039 -27.815,-31.039 -16.461,0 -30.287,14.426 -27.799,31.055 0.866,-5.57 2.825,-11.47 6.54,-15.812"
         style="fill:#ffe2ae"
         id="path112"
         inkscape:connector-curvature="0" />
      <path
         d="m 820.48866,168.72428 c -1.768,13.546 -9.18,23.894 -23.344,26.367 -17.207,3.004 -34.944,-7.73 -37.739,-25.776 -0.047,1.054 0,2.102 0.142,3.146 -0.142,-0.881 -0.257,-1.763 -0.345,-2.652 -1.836,19.191 16.056,34.237 34.56,32.006 16.211,-1.958 28.78,-16.626 26.726,-33.091"
         style="fill:#fabb78"
         id="path114"
         inkscape:connector-curvature="0" />
      <path
         d="m 819.32666,163.49328 c 5.858,17.885 -7.398,36.128 -25.564,38.322 -10.063,1.214 -20.374,-2.473 -27.185,-10.026 -3.328,-3.692 -5.711,-8.201 -6.805,-13.054 -0.671,-2.971 -2.23,-11.156 0.184,-13.603 -4.34,-0.167 -2.567,10.749 -2.017,13.417 1.112,5.399 3.726,10.419 7.435,14.49 5.106,5.604 12.113,9.253 19.614,10.337 9.855,1.423 20.095,-1.602 27.434,-8.354 7.393,-6.803 15.121,-23.065 6.904,-31.529 m 1.803,-0.108 c 0.021,0.319 0.299,0.982 0,0"
         style="fill:url(#XMLID_22_-6)"
         id="path123"
         inkscape:connector-curvature="0" />
      <path
         d="m 812.49066,146.31228 c 5.391,5.529 8.4,10.305 8.717,18.467 -0.016,-0.459 -6.111,-5.721 -7.033,-6.477 -2.206,-1.809 -6.392,3.005 -8.875,4.051 -10.132,4.265 -18.687,1.193 -28.968,1.253 -4.325,0.025 -6.734,3.044 -10.563,3.78 -2.39,0.459 -4.321,-3.151 -7.093,-2.458 -3.283,0.818 -2.217,6.749 -1.722,9.077 -8.316,-29.954 35.862,-47.82 55.537,-27.693"
         style="fill:#ffce00"
         id="path125"
         inkscape:connector-curvature="0" />
      <path
         d="m 820.71366,160.08328 c 0.114,0.962 0.194,1.928 0.239,2.895 -0.005,-0.112 -5.029,-4.594 -5.602,-5.159 -3.455,-3.401 -3.614,-1.055 -6.998,1.043 -7.448,4.62 -17.01,5.242 -25.422,3.74 -3.727,-0.666 -7.669,-1.342 -11.363,-0.101 -2.103,0.707 -5.189,4.057 -7.505,2.691 -5.602,-3.301 -8.449,-0.262 -7.485,5.856 -0.942,-7.586 4.276,-4.95 8.506,-3.699 1.911,0.566 5.059,-2.478 6.75,-3.047 4.441,-1.498 9.146,-0.241 13.596,0.477 7.568,1.223 16.588,-0.041 23.187,-4.12 1.939,-1.199 3.328,-4.188 5.552,-2.359 0.925,0.76 7.024,6.013 7.04,6.477 -0.06,-1.574 -0.224,-3.14 -0.495,-4.694"
         style="fill:#ffb600"
         id="path127-6"
         inkscape:connector-curvature="0" />
      <path
         d="m 760.00066,165.13428 c -0.257,0.98 -0.887,3.669 -0.797,4.675 0.065,-0.658 0.475,-4.083 3.301,-3.198 0.315,-1.289 -1.482,-1.448 -2.504,-1.477 m 50.28,-5.405 c -8.2,5.52 -18.441,6.168 -27.883,4.525 -3.826,-0.666 -7.88,-1.185 -11.559,0.434 -1.281,0.742 -3.66,2.725 -5.349,2.725 -0.686,0.104 -0.515,-0.509 -0.839,0.264 2.655,1.664 3.762,0.353 6.284,-1.112 4.195,-2.434 9.056,-1.685 13.581,-0.877 8.784,1.569 19.496,0.876 26.868,-4.763 -0.367,-0.4 -0.735,-0.799 -1.103,-1.196 m 2.936,-2.097 c 0.946,1.345 1.951,1.628 3.181,2.784 -0.947,-1.06 -2.006,-1.987 -3.181,-2.784"
         style="fill:#f2bd7e"
         id="path129-0"
         inkscape:connector-curvature="0" />
      <path
         d="m 762.66766,165.97528 c -0.378,1.396 0.587,0.835 1.984,1.701 0.447,-1.068 -1.189,-1.264 -1.984,-1.701 m 50.256,-8.477 c -0.794,0.847 -1.675,1.589 -2.643,2.231 2.749,2.767 1.197,-1.208 3.668,-1.003 -0.148,-0.636 -0.489,-1.045 -1.025,-1.228"
         style="fill:#f3c58a"
         id="path131-8"
         inkscape:connector-curvature="0" />
      <path
         d="m 759.32266,168.72428 c -0.163,1.292 0.03,2.455 0.225,3.736 -0.149,-1.251 -0.061,-2.494 -0.225,-3.736"
         style="fill:#f1b26f"
         id="path133-2"
         inkscape:connector-curvature="0" />
      <path
         d="m 759.95666,165.13228 c -1.078,1.092 -0.877,3.222 -0.763,4.568 0.009,-0.111 0.586,-4.568 0.763,-4.568"
         style="fill:url(#XMLID_23_-1)"
         id="path142"
         inkscape:connector-curvature="0" />
      <path
         d="m 765.64666,167.40528 c -0.209,0.011 -0.209,0.011 0,0 m 1.168,-0.449 c -0.304,0.161 -0.304,0.161 0,0 m 10.479,-3.333 c 1.716,0.099 3.417,0.309 5.105,0.631 -1.688,-0.322 -3.39,-0.532 -5.105,-0.631 m -0.85,-0.018 c -0.579,0.008 -0.579,0.008 0,0 m 39.748,-4.938 c 1.264,1.299 2.448,2.689 3.786,3.916 -1.253,-1.311 -2.471,-2.665 -3.786,-3.916"
         style="fill:#f3bc35"
         id="path144"
         inkscape:connector-curvature="0" />
      <path
         d="m 822.00366,161.37328 c 0.1,0.855 1.079,4.15 -0.725,2.51 -0.201,1.209 0.162,1.997 1.085,2.364 0.462,0 -0.315,-4.604 -0.36,-4.874"
         style="fill:#f3d4b2"
         id="path146"
         inkscape:connector-curvature="0" />
      <path
         d="m 821.15466,163.76728 c 0.018,0.337 0.036,0.676 0.053,1.011 -0.038,0.065 -0.078,0.13 -0.117,0.193 -0.276,-0.187 -0.55,-0.373 -0.824,-0.558 3.229,3.387 1.429,-0.126 0.888,-0.646"
         style="fill:url(#XMLID_24_-3)"
         id="path155"
         inkscape:connector-curvature="0" />
      <path
         d="m 821.20766,164.77928 c -0.157,0.257 -0.157,0.257 0,0 m -0.054,-1.013 c 0.019,0.339 0.038,0.675 0.055,1.013 0.204,-0.436 0.185,-0.773 -0.055,-1.013"
         style="fill:#f3bc35"
         id="path157"
         inkscape:connector-curvature="0" />
      <path
         d="m 761.21966,164.63728 c -0.422,0.164 -0.842,0.33 -1.264,0.495 2.928,0 4.365,3.257 7.207,1.631 -1.958,0.737 -3.882,-2.126 -5.943,-2.126 m 46.26,-3.321 c -5.154,2.463 -11.039,3.373 -16.71,3.373 -6.648,0 -13.588,-3.553 -19.93,-0.001 5.232,-2.304 10.92,-0.318 16.264,0.332 6.701,0.817 14.42,-0.505 20.376,-3.704 m 6.157,-4.394 c -0.318,0.082 -0.556,0.273 -0.713,0.576 1.114,0.397 8.269,6.862 8.284,7.28 -0.345,-1.78 -5.246,-7.856 -7.571,-7.856"
         style="fill:#f3b035"
         id="path159-0"
         inkscape:connector-curvature="0" />
      <path
         d="m 820.96866,161.11128 c 0.025,0.208 0.456,3.051 0.138,3.087 -2.813,0.317 -5.209,-7.403 -8.472,-7.534 -1.128,-0.045 -5.819,4.281 -7.335,4.919 -4.879,2.056 -10.282,2.851 -15.551,2.851 -4.526,0 -8.882,-1.623 -13.416,-1.599 -3.389,0.02 -8.58,4.532 -11.25,3.744 -1.668,-0.492 -4.424,-3.565 -6.189,-1.668 -1.579,1.698 -0.677,5.299 -0.365,7.299 -0.216,-1.766 -0.866,-5.484 1.008,-6.663 2.294,-1.445 4.109,2.245 6.23,1.836 3.829,-0.739 6.24,-3.754 10.566,-3.778 4.534,-0.025 8.89,1.597 13.416,1.597 7.346,0 17.419,-1.114 22.481,-7.225 1.465,-1.765 7.298,7.257 8.876,6.994 0.413,-0.069 -0.08,-3.549 -0.137,-3.86"
         style="fill:#c68526"
         id="path161-9"
         inkscape:connector-curvature="0" />
      <path
         d="m 808.12366,155.15628 c 0,9.715 -35.65,8.844 -35.65,0.642 6.511,1.415 13.671,2.588 20.328,1.947 1.775,-0.171 15.322,-4.978 15.322,-2.589"
         style="fill:#ffe600"
         id="path163-2"
         inkscape:connector-curvature="0" />
      <path
         d="m 757.08566,169.64728 c 0,-20.542 21.476,-33.382 40.309,-29.158 18.808,4.219 31.07,25.51 22.787,43.863 11.274,-20.286 -5.063,-45.383 -26.546,-47.973 -11.089,-1.339 -22.352,3.04 -29.709,11.426 -7.508,8.556 -11.11,23.189 -5.3,33.64 -1.66,-3.676 -1.541,-7.856 -1.541,-11.798"
         style="fill:url(#XMLID_25_)"
         id="path170"
         inkscape:connector-curvature="0" />
      <path
         sodipodi:nodetypes="cc"
         inkscape:connector-curvature="0"
         id="path4439"
         d="m 817.02478,241.88425 c 11.32195,-5.1735 9.06233,-12.86318 8.13914,-19.70196"
         style="fill:none;fill-rule:evenodd;stroke:#5d5d5d;stroke-width:1.39551556;stroke-linecap:butt;stroke-linejoin:miter;stroke-miterlimit:4;stroke-dasharray:none;stroke-opacity:1" />
      <path
         sodipodi:nodetypes="cc"
         inkscape:connector-curvature="0"
         id="path4443"
         d="m 818.08321,240.97651 c 8.29121,-4.35814 8.82379,-10.24174 7.56083,-17.21202"
         style="fill:none;fill-rule:evenodd;stroke:#ffffff;stroke-width:0.34887889px;stroke-linecap:round;stroke-linejoin:round;stroke-opacity:0.41666667" />
      <path
         style="fill:none;fill-rule:evenodd;stroke:#5d5d5d;stroke-width:1.39551556;stroke-linecap:butt;stroke-linejoin:miter;stroke-miterlimit:4;stroke-dasharray:none;stroke-opacity:1"
         d="m 827.34309,239.03782 c -9.56018,0.2042 -12.8121,-4.69721 -15.03258,-13.20854"
         id="path4437"
         inkscape:connector-curvature="0"
         sodipodi:nodetypes="cc" />
      <circle
         transform="scale(-1,1)"
         r="5.7866001"
         cy="255.16132"
         cx="-774.90369"
         id="circle4393"
         style="opacity:1;fill:#090c0e;fill-opacity:1;stroke:none;stroke-width:1.5;stroke-linecap:round;stroke-linejoin:round;stroke-miterlimit:4;stroke-dasharray:none;stroke-opacity:1" />
      <circle
         transform="scale(-1,1)"
         style="opacity:1;fill:url(#radialGradient4391);fill-opacity:1;stroke:none;stroke-width:1.5;stroke-linecap:round;stroke-linejoin:round;stroke-miterlimit:4;stroke-dasharray:none;stroke-opacity:1"
         id="path4381"
         cx="-775.59552"
         cy="255.4129"
         r="5.6608043" />
      <circle
         transform="scale(-1,1)"
         style="opacity:1;fill:#f6f6f6;fill-opacity:1;stroke:url(#linearGradient4369);stroke-width:0.52331835;stroke-linecap:round;stroke-linejoin:round;stroke-miterlimit:4;stroke-dasharray:none;stroke-opacity:1"
         id="path4361"
         cx="-775.52716"
         cy="255.15791"
         r="3.4468501" />
      <circle
         transform="scale(-1,1)"
         style="opacity:1;fill:url(#linearGradient4379);fill-opacity:1;stroke:none;stroke-width:1.5;stroke-linecap:round;stroke-linejoin:round;stroke-miterlimit:4;stroke-dasharray:none;stroke-opacity:1"
         id="path4371"
         cx="-775.40509"
         cy="255.56017"
         r="2.8019557" />
      <path
         style="fill:none;fill-rule:evenodd;stroke:#000000;stroke-width:2.79103112;stroke-linecap:round;stroke-linejoin:round;stroke-miterlimit:4;stroke-dasharray:none;stroke-opacity:1"
         d="m 773.77151,249.06024 c 0,0 -3.011,-10.50218 -3.89966,-16.66793 -1.21379,-8.42163 -3.18108,-20.51258 -0.44029,-28.61852 0.9593,-2.83715 3.64808,-3.39648 3.64808,-3.39648"
         id="path4397"
         inkscape:connector-curvature="0"
         sodipodi:nodetypes="cssc" />
      <path
         style="fill:none;fill-rule:evenodd;stroke:#000000;stroke-width:2.79103112;stroke-linecap:round;stroke-linejoin:round;stroke-miterlimit:4;stroke-dasharray:none;stroke-opacity:1"
         d="m 808.60993,198.76927 c 0,0 1.68912,1.06042 2.40168,2.22378 1.99126,3.25097 3.64699,11.56362 3.64699,11.56362"
         id="path4404"
         inkscape:connector-curvature="0"
         sodipodi:nodetypes="csc" />
      <path
         style="fill:none;fill-rule:evenodd;stroke:#000000;stroke-width:2.79103112;stroke-linecap:round;stroke-linejoin:round;stroke-miterlimit:4;stroke-dasharray:none;stroke-opacity:1"
         d="m 812.52378,226.43302 c 0,0 -2.49018,-5.32681 -2.13483,-8.09453 0.23839,-1.85673 1.04795,-3.48635 2.56879,-4.57782 1.42206,-1.02057 3.63247,-1.64118 5.34785,-1.29295 1.57153,0.31904 2.9897,1.42549 4.00279,2.66853 1.59663,1.95902 2.84643,7.02713 2.84643,7.02713"
         id="path4407"
         inkscape:connector-curvature="0"
         sodipodi:nodetypes="cssssc" />
      <ellipse
         style="opacity:1;fill:#090c0e;fill-opacity:1;stroke:none;stroke-width:8;stroke-linecap:round;stroke-linejoin:round;stroke-miterlimit:4;stroke-dasharray:none;stroke-opacity:1"
         id="path4409"
         cx="-797.97186"
         cy="329.49704"
         rx="3.3964829"
         ry="1.4466501"
         transform="matrix(-0.99382388,0.11096885,0.11096885,0.99382388,0,0)" />
      <ellipse
         transform="matrix(-0.96901128,0.24701646,0.24701646,0.96901128,0,0)"
         ry="1.4466501"
         rx="3.3964829"
         cy="436.16602"
         cx="-729.56885"
         id="ellipse4411"
         style="opacity:1;fill:#090c0e;fill-opacity:1;stroke:none;stroke-width:8;stroke-linecap:round;stroke-linejoin:round;stroke-miterlimit:4;stroke-dasharray:none;stroke-opacity:1" />
      <ellipse
         style="opacity:1;fill:url(#linearGradient4421);fill-opacity:1;stroke:none;stroke-width:8;stroke-linecap:round;stroke-linejoin:round;stroke-miterlimit:4;stroke-dasharray:none;stroke-opacity:1"
         id="ellipse4413"
         cx="-730.1795"
         cy="436.06207"
         rx="2.1704123"
         ry="0.9244349"
         transform="matrix(-0.96901128,0.24701646,0.24701646,0.96901128,0,0)" />
      <ellipse
         transform="matrix(-0.991051,0.1334838,0.1334838,0.991051,0,0)"
         ry="0.9244349"
         rx="2.1704123"
         cy="347.50299"
         cx="-791.03687"
         id="ellipse4423"
         style="opacity:1;fill:url(#linearGradient4425);fill-opacity:1;stroke:none;stroke-width:8;stroke-linecap:round;stroke-linejoin:round;stroke-miterlimit:4;stroke-dasharray:none;stroke-opacity:1" />
      <path
         style="fill:url(#linearGradient4435);fill-opacity:1;fill-rule:evenodd;stroke:none;stroke-width:1px;stroke-linecap:butt;stroke-linejoin:miter;stroke-opacity:1"
         d="m 821.74518,213.37551 c -1.87444,-1.68863 -3.70619,-1.91015 -6.35268,-1.63535 -0.20452,-1.12174 -0.88477,-4.5262 -1.83473,-7.35576 -1.04812,-3.12194 -3.37986,-6.09707 -2.19073,-3.90295 0.84499,1.55913 1.1914,2.13173 1.78481,3.86066 0.76958,2.24225 1.16407,5.80437 1.54878,7.64964 -0.92778,0.36927 -3.00639,2.22233 -3.53308,3.67413 -0.90136,2.48459 -0.40732,6.7219 0.99427,8.42831 1.32665,1.61517 -3.87277,-5.24178 1.19953,-10.10813 2.41782,-2.31965 5.97494,-1.88486 8.39147,0.29608 0.49132,0.44343 1.16617,1.25424 1.77363,2.42489 1.35471,2.61064 2.55103,5.95054 1.88183,3.48293 -0.93182,-3.43597 -2.0403,-5.35254 -3.6631,-6.81445 z"
         id="path4427"
         inkscape:connector-curvature="0"
         sodipodi:nodetypes="scssscsssssss" />
      <path
         style="fill:none;fill-rule:evenodd;stroke:#ffffff;stroke-width:0.34887889px;stroke-linecap:round;stroke-linejoin:round;stroke-opacity:0.41666667"
         d="m 826.13327,238.75273 c -7.13724,-0.29046 -10.46916,-3.12307 -12.89789,-10.71859"
         id="path4441"
         inkscape:connector-curvature="0"
         sodipodi:nodetypes="cc" />
    </g>
  </g>
</svg>
